<svg id="Layer_1" enable-background="new 0 0 510 510" height="512" viewBox="0 0 510 510" width="512" xmlns="http://www.w3.org/2000/svg"><g id="XMLID_1039_"><path id="XMLID_1212_" d="m180 240v210h165l10-105-10-105z" fill="#f96219"/><path id="XMLID_1194_" d="m0 0v210h30v60l80-60h55l10-105-10-105z" fill="#8cc61b"/><path id="XMLID_1185_" d="m165 0h165v210h-165z" fill="#00ae48"/><path id="XMLID_1059_" d="m345 240v210h55l80 60v-60h30v-210z" fill="#ea3700"/><g fill="#f9f9f9"><path id="XMLID_1182_" d="m165 90h-105v-30h105l10 15z"/><path id="XMLID_1168_" d="m165 150h-105v-30h105l10 15z"/><path id="XMLID_1160_" d="m345 330h-105v-30h105l10 15z"/><path id="XMLID_1141_" d="m345 390h-105v-30h105l10 15z"/></g><path id="XMLID_1086_" d="m165 60h105v30h-105z" fill="#eceae7"/><path id="XMLID_1076_" d="m165 120h105v30h-105z" fill="#eceae7"/><path id="XMLID_1056_" d="m345 300h105v30h-105z" fill="#eceae7"/><path id="XMLID_1040_" d="m345 360h105v30h-105z" fill="#eceae7"/></g></svg>